<svg viewBox="0 0 680 200" width="100%" role="img" xmlns="http://www.w3.org/2000/svg">
  <title>Daily DNA</title>

  <g transform="translate(110,100)">
    <circle cx="0" cy="0" r="52" fill="#6366f1" opacity="0.10"/>
    <circle cx="0" cy="0" r="52" fill="none" stroke="#6366f1" stroke-width="2.5"/>

    <line x1="0" y1="-45" x2="0" y2="-38" stroke="#6366f1" stroke-width="2.5" stroke-linecap="round"/>
    <line x1="45" y1="0" x2="38" y2="0" stroke="#6366f1" stroke-width="2.5" stroke-linecap="round"/>
    <line x1="0" y1="45" x2="0" y2="38" stroke="#6366f1" stroke-width="2.5" stroke-linecap="round"/>
    <line x1="-45" y1="0" x2="-38" y2="0" stroke="#6366f1" stroke-width="2.5" stroke-linecap="round"/>

    <line x1="0" y1="0" x2="-12" y2="-26" stroke="#6366f1" stroke-width="2.5" stroke-linecap="round"/>
    <line x1="0" y1="0" x2="20" y2="10" stroke="#6366f1" stroke-width="2" stroke-linecap="round"/>
    <circle cx="0" cy="0" r="3.5" fill="#6366f1"/>

    <path d="M-20,-38 C-4,-24 4,-14 20,-6 C4,2 -4,12 -20,26 C-4,32 4,38 20,44" fill="none" stroke="#10b981" stroke-width="3" stroke-linecap="round"/>
    <path d="M20,-38 C4,-24 -4,-14 -20,-6 C-4,2 4,12 20,26 C4,32 -4,38 -20,44" fill="none" stroke="#818cf8" stroke-width="3" stroke-linecap="round"/>

    <line x1="-14" y1="-30" x2="14" y2="-30" stroke="#10b981" stroke-width="2" stroke-linecap="round" opacity="0.7"/>
    <line x1="-18" y1="-6" x2="18" y2="-6" stroke="#818cf8" stroke-width="2" stroke-linecap="round" opacity="0.7"/>
    <line x1="-14" y1="18" x2="14" y2="18" stroke="#10b981" stroke-width="2" stroke-linecap="round" opacity="0.7"/>
    <line x1="-18" y1="40" x2="18" y2="40" stroke="#818cf8" stroke-width="2" stroke-linecap="round" opacity="0.7"/>
  </g>

  <text x="186" y="88" fill="#F5F5FA" font-family="'Anthropic Sans', -apple-system, BlinkMacSystemFont, 'Segoe UI', sans-serif" font-size="32" font-weight="500">DAILY DNA</text>
  <text x="188" y="115" fill="#B7BBD6" font-family="'Anthropic Sans', -apple-system, BlinkMacSystemFont, 'Segoe UI', sans-serif" font-size="11" font-weight="400">BUILD YOUR DAILY SUCCESS CYCLE</text>
  <line x1="186" y1="126" x2="540" y2="126" stroke="#6366f1" stroke-width="1" opacity="0.3"/>
</svg>
